<svg width="716" height="706" viewBox="0 0 716 706" fill="none" xmlns="http://www.w3.org/2000/svg">
<path d="M205.235 383.8C215.424 383.8 224.04 380.32 231.084 373.359C238.128 366.398 241.65 357.945 241.65 348C241.65 338.056 238.118 329.603 231.054 322.642C223.991 315.681 215.414 312.2 205.323 312.2C195.233 312.2 186.707 315.681 179.746 322.642C172.784 329.603 169.304 338.056 169.304 348C169.304 357.945 172.797 366.398 179.784 373.359C186.771 380.32 195.254 383.8 205.235 383.8ZM358 383.8C367.944 383.8 376.397 380.32 383.358 373.359C390.319 366.398 393.8 357.945 393.8 348C393.8 338.056 390.319 329.603 383.358 322.642C376.397 315.681 367.944 312.2 358 312.2C348.055 312.2 339.603 315.681 332.641 322.642C325.68 329.603 322.2 338.056 322.2 348C322.2 357.945 325.68 366.398 332.641 373.359C339.603 380.32 348.055 383.8 358 383.8ZM509.93 383.8C520.021 383.8 528.547 380.32 535.508 373.359C542.469 366.398 545.95 357.945 545.95 348C545.95 338.056 542.457 329.603 535.47 322.642C528.483 315.681 519.999 312.2 510.018 312.2C499.83 312.2 491.214 315.681 484.17 322.642C477.126 329.603 473.604 338.056 473.604 348C473.604 357.945 477.136 366.398 484.199 373.359C491.263 380.32 499.84 383.8 509.93 383.8ZM357.959 661.996C314.674 661.996 273.866 653.891 235.533 637.679C197.2 621.468 163.801 599.13 135.336 570.665C106.87 542.199 84.532 508.783 68.3211 470.417C52.1096 432.05 44.0039 391.155 44.0039 347.73C44.0039 304.359 52.124 263.603 68.3643 225.463C84.6051 187.323 107.031 153.946 135.641 125.333C164.251 96.719 197.627 74.22 235.77 57.8355C273.913 41.451 314.616 33.2588 357.877 33.2588C401.319 33.2588 442.227 41.4277 480.6 57.7654C518.973 74.1031 552.387 96.542 580.841 125.082C609.294 153.622 631.724 187.064 648.131 225.407C664.538 263.75 672.741 304.683 672.741 348.206C672.741 391.697 664.549 432.44 648.165 470.435C631.78 508.43 609.281 541.689 580.668 570.213C552.054 598.738 518.635 621.166 480.412 637.498C442.189 653.83 401.371 661.996 357.959 661.996ZM358.202 594.126C425.944 594.126 483.867 570.163 531.97 522.237C580.073 474.312 604.125 416.165 604.125 347.798C604.125 280.056 580.177 222.133 532.281 174.03C484.385 125.927 426.224 101.875 357.798 101.875C290.055 101.875 232.132 125.823 184.03 173.719C135.926 221.615 111.875 279.776 111.875 348.203C111.875 415.945 135.838 473.868 183.763 521.971C231.689 570.074 289.835 594.126 358.202 594.126Z" fill="url(#paint0_linear_238_267)"/>
<defs>
<linearGradient id="paint0_linear_238_267" x1="44" y1="43.5" x2="673" y2="662" gradientUnits="userSpaceOnUse">
<stop stop-color="#EE9617"/>
<stop offset="1" stop-color="#FE5858"/>
</linearGradient>
</defs>
</svg>
