<svg width="725" height="725" viewBox="0 0 725 725" fill="none" xmlns="http://www.w3.org/2000/svg">
<path d="M362.181 530.911C374.98 530.911 385.03 527.493 392.33 520.656C399.63 513.819 403.281 504.002 403.281 491.203C403.281 478.404 399.736 468.229 392.648 460.677C385.56 453.125 375.616 449.349 362.817 449.349C350.018 449.349 339.969 453.076 332.669 460.531C325.368 467.986 321.718 478.113 321.718 490.911C321.718 503.71 325.262 513.577 332.351 520.51C339.439 527.444 349.383 530.911 362.181 530.911ZM330.025 398.75H398.749V195.599H330.025V398.75ZM362.458 680.442C318.629 680.442 277.308 672.235 238.493 655.82C199.679 639.405 165.86 616.786 137.036 587.963C108.213 559.139 85.5942 525.303 69.1794 486.455C52.7642 447.606 44.5566 406.196 44.5566 362.226C44.5566 318.309 52.7788 277.041 69.2233 238.422C85.6682 199.803 108.376 166.006 137.345 137.033C166.315 108.06 200.111 85.2778 238.734 68.6874C277.356 52.097 318.57 43.8018 362.375 43.8018C406.363 43.8018 447.785 52.0733 486.64 68.6164C525.496 85.1595 559.329 107.88 588.141 136.779C616.952 165.678 639.665 199.54 656.278 238.365C672.891 277.19 681.197 318.638 681.197 362.708C681.197 406.746 672.902 448.001 656.312 486.473C639.721 524.945 616.939 558.623 587.966 587.506C558.993 616.389 525.154 639.099 486.45 655.636C447.747 672.174 406.416 680.442 362.458 680.442ZM362.704 611.718C431.298 611.718 489.949 587.454 538.656 538.926C587.364 490.398 611.718 431.521 611.718 362.295C611.718 293.701 587.469 235.05 538.971 186.343C490.473 137.635 431.581 113.281 362.295 113.281C293.701 113.281 235.05 137.53 186.342 186.028C137.635 234.526 113.281 293.418 113.281 362.704C113.281 431.298 137.545 489.949 186.073 538.656C234.601 587.364 293.478 611.718 362.704 611.718Z" fill="url(#paint0_linear_238_271)"/>
<defs>
<linearGradient id="paint0_linear_238_271" x1="137" y1="132" x2="539" y2="633.5" gradientUnits="userSpaceOnUse">
<stop stop-color="#A00000"/>
<stop offset="1" stop-color="#EA2027"/>
</linearGradient>
</defs>
</svg>
