<svg width="83" height="83" viewBox="0 0 83 83" fill="none" xmlns="http://www.w3.org/2000/svg">
<path d="M41.5438 77.899C36.4635 77.899 31.666 76.9738 27.1513 75.1234C22.6366 73.273 18.7581 70.7267 15.516 67.4846C12.2739 64.2425 9.7276 60.364 7.87722 55.8493C6.02678 51.3346 5.10156 46.5371 5.10156 41.4568C5.10156 36.3618 6.02165 31.5918 7.86183 27.1469C9.70195 22.7021 12.2575 18.8419 15.5284 15.5665C18.7993 12.2912 22.6845 9.71366 27.1841 7.83405C31.6836 5.95445 36.4557 5.01465 41.5005 5.01465C45.7633 5.01465 49.7688 5.64346 53.5171 6.90108C57.2654 8.15876 60.6664 9.9796 63.7203 12.3636L57.9276 18.1563C55.675 16.6204 53.1653 15.3719 50.3984 14.4107C47.6314 13.4494 44.6655 12.9688 41.5005 12.9688C33.3967 12.9688 26.6155 15.6804 21.157 21.1034C15.6985 26.5265 12.9693 33.3135 12.9693 41.4644C12.9693 49.6152 15.695 56.4141 21.1463 61.861C26.5978 67.3079 33.3703 70.0313 41.464 70.0313C49.5578 70.0313 56.3425 67.3163 61.8182 61.8862C67.2939 56.4562 70.0318 49.6608 70.0318 41.5001C70.0318 39.9895 69.9165 38.5511 69.6859 37.1847C69.4554 35.8182 69.1384 34.4612 68.7349 33.1136L75.0464 26.8021C75.9686 29.1006 76.6891 31.4544 77.2078 33.8634C77.7266 36.2724 77.9859 38.7879 77.9859 41.4098C77.9859 46.5422 77.0461 51.3513 75.1665 55.8371C73.2869 60.3229 70.7094 64.2013 67.434 67.4721C64.1587 70.7431 60.2985 73.2986 55.8536 75.1388C51.4088 76.9789 46.6388 77.899 41.5438 77.899ZM36.2266 58.3594L21.1828 43.2292L26.6297 37.6959L36.2266 47.2928L72.4526 10.9803L78.0724 16.5136L36.2266 58.3594Z" fill="url(#paint0_linear_214_2)"/>
<defs>
<linearGradient id="paint0_linear_214_2" x1="77.8144" y1="5.1869" x2="5.18937" y2="77.8119" gradientUnits="userSpaceOnUse">
<stop stop-color="#20BF55"/>
<stop offset="1" stop-color="#01BAEF"/>
</linearGradient>
</defs>
</svg>
